<?xml version="1.0" encoding="UTF-8" standalone="no"?>
<!DOCTYPE svg PUBLIC "-//W3C//DTD SVG 1.1//EN" "http://www.w3.org/Graphics/SVG/1.1/DTD/svg11.dtd">
<svg width="100%" height="100%" viewBox="0 0 162 204" version="1.1" xmlns="http://www.w3.org/2000/svg" xmlns:xlink="http://www.w3.org/1999/xlink" xml:space="preserve" xmlns:serif="http://www.serif.com/" style="fill-rule:evenodd;clip-rule:evenodd;stroke-linecap:round;stroke-linejoin:round;stroke-miterlimit:1.5;">
    <g transform="matrix(1,0,0,1,-1670.56,-105.841)">
        <g transform="matrix(0.985392,0,0,1.34013,1024.55,14.7307)">
            <g transform="matrix(1.18396,0,0,0.87277,-1346.27,-49.924)">
                <rect x="1692.31" y="189.675" width="120" height="117.905" style="fill:rgb(255,63,1);stroke:rgb(27,0,125);stroke-width:3px;"/>
            </g>
        </g>
        <g transform="matrix(0.985392,0,0,1.34013,1024.55,14.7307)">
            <g transform="matrix(0.930096,0.298488,-0.405943,0.683894,200.442,-314.426)">
                <text x="728.162px" y="286.438px" style="font-family:'Muli';font-size:64px;fill:rgb(240,31,45);">A</text>
            </g>
        </g>
        <g transform="matrix(0.985392,0,0,1.34013,1024.55,14.7307)">
            <g transform="matrix(1.01482,0,0,0.746194,-47.4669,-30.7977)">
                <text x="728.162px" y="286.438px" style="font-family:'Muli';font-size:64px;fill:white;">R</text>
            </g>
        </g>
        <g transform="matrix(0.985392,0,0,1.34013,1024.55,14.7307)">
            <g transform="matrix(0.845687,0,0,0.543588,-753.504,31.9196)">
                <rect x="1692.31" y="189.675" width="120" height="117.905" style="fill:none;stroke:black;stroke-width:4.47px;"/>
            </g>
        </g>
    </g>
</svg>
